<svg width="1460" height="897" viewBox="0 0 1460 897" fill="none" xmlns="http://www.w3.org/2000/svg">
<path d="M998.134 376.644L966.551 313.767C945.453 271.762 934.904 250.76 915.419 241.466C895.934 232.172 872.973 237.191 827.052 247.228L776.156 258.352C737.281 266.849 717.843 271.098 700.359 264.483C682.875 257.868 671.118 241.817 647.603 209.714L596.325 139.709C574.476 109.881 563.552 94.9676 547.401 88.2068C531.249 81.4461 512.958 84.131 476.377 89.5008L297.681 115.732" stroke="white" stroke-linecap="round"/>
<path d="M11 895.741L42.0112 867.167C81.5214 830.763 101.277 812.56 103.602 788.619C103.626 788.372 103.649 788.124 103.67 787.876C105.712 763.909 89.5738 742.435 57.2977 699.486V699.486C29.849 662.96 16.1246 644.697 16.1284 623.658C16.1285 623.438 16.1296 623.218 16.132 622.999C16.3559 601.96 30.2771 583.847 58.1195 547.621L80.5092 518.489C106.604 484.537 119.651 467.561 120.497 447.646C121.342 427.732 109.781 409.711 86.6578 373.669L11 255.741" stroke="white" stroke-linecap="round"/>
<path d="M884.072 756.79L977.49 732.536C1025.08 720.179 1048.88 714.001 1062.14 695.926C1075.41 677.851 1074.16 653.297 1071.66 604.189L1067.43 520.738C1065.31 479.106 1064.26 458.291 1074.41 441.679C1084.57 425.066 1103.58 416.52 1141.6 399.427L1252.53 349.554C1287.86 333.671 1305.53 325.729 1315.6 310.504C1325.66 295.28 1326.06 275.916 1326.84 237.188L1331.31 16.6433" stroke="white" stroke-linecap="round"/>
</svg>
