<svg width="418" height="372" viewBox="0 0 418 372" fill="none" xmlns="http://www.w3.org/2000/svg">
<g clip-path="url(#clip0_153_429)">
<path d="M131.556 369.907C117.906 366.585 104.711 354.365 101.36 341.944C99.0131 333.242 100.164 320.519 103.964 313.172C105.446 310.307 109.699 305.041 113.415 301.47L120.172 294.978L95.3662 173.721C81.7232 107.03 70.1559 50.7744 69.6613 48.7083C68.787 45.0562 67.9488 44.9364 39.5586 44.4084C10.736 43.8723 10.297 43.8069 5.89177 39.3978C-2.16339 31.3354 -1.90937 11.7731 6.34982 4.11952C10.7873 0.00744915 10.7985 0.00649375 54.3048 0.00649375C107.555 0.00649375 105.083 -1.05933 110.229 24.1183C112.062 33.0871 113.986 41.7798 114.504 43.4352C115.392 46.2708 123.915 46.4451 261.674 46.4451H407.903L412.931 51.4727C416.229 54.7707 417.959 58.2562 417.959 61.6046C417.959 67.6579 384.082 217.684 381.718 222.101C377.111 230.707 380.34 230.48 262.764 230.48C176.105 230.48 153.073 230.931 153.133 232.63C153.174 233.812 154.173 239.423 155.353 245.099L157.498 255.419L259.166 256.279C357.782 257.113 360.95 257.242 364.652 260.579C370.883 266.194 371.708 270.712 368.796 283.269C366.43 293.471 366.423 294.879 368.737 296.174C381.276 303.19 388.717 316.085 388.717 330.798C388.717 360.792 358.432 379.718 331.952 366.274C310.113 355.186 302.702 325.574 317.397 308.112C319.726 305.345 321.631 302.612 321.631 302.039C321.631 301.466 286.678 300.998 243.958 300.998C170.123 300.998 166.416 301.146 168.932 304.007C180.07 316.675 182.054 335.791 173.737 350.29C167.878 360.504 161.262 365.776 150.079 369.141C141.512 371.719 139.365 371.808 131.556 369.907Z" fill="#06AC98"/>
</g>
<defs>
<clipPath id="clip0_153_429">
<rect width="418" height="372" fill="white"/>
</clipPath>
</defs>
</svg>
